<?xml version="1.0"?>
<svg xmlns="http://www.w3.org/2000/svg" width="196" height="196"
     fill="#74878c" stroke="none">
	<path d="
		M 0,98 a 98,98 0 1,1  196,0
		         98,98 0 1,1 -196,0
	  m 20,0 a 78,78 0 1,0  156,0
		         78,78 0 1,0 -156,0
		Z
	" />
	<rect x="85.5" y="18" width="24.75" height="160"
	      transform="rotate(45, 98, 98)" />
	<path d="
	  M 131,85.5
		H 151.56
		A 55,55 0 0,0 145.77,70.73
	  Z
	" />
	<path d="
		M 89.68,126.82
		A 30,30 0 0,0 125.27,110.5
		H 151.56
		A 55,55 0 0,1 70.73,145.77
		Z
	" />
	<path d="
		M 50.23,125.27
		A 55,55 0 0,1 125.27,50.23
		L 106.32,69.18
		A 30,30 0 0,0 69.18,106.32
		Z
	" />
</svg>
